<svg width="74px" height="28px" viewBox="0 0 74 28" version="1.1"
    xmlns="http://www.w3.org/2000/svg"
    xmlnsXlink="http://www.w3.org/1999/xlink">
    <g id="Page-1" stroke="none" strokeWidth="1" fill="none" fillRule="evenodd">
        <g id="Group-3" fill="#FCEEE0">
            <path d="M37,2.30926389e-14 L37,27 L35.9908717,27.0011127 C35.9969397,26.8348251 36,26.6677699 36,26.5 C36,19.0441559 29.9558441,13 22.5,13 C15.0441559,13 9,19.0441559 9,26.5 C9,26.6677699 9.00306034,26.8348251 9.00912825,27.0011127 L0,27 L0,2.30926389e-14 L37,2.30926389e-14 Z" id="Combined-Shape-Copy"></path>
            <path d="M74,2.30926389e-14 L74,27 L72.9908717,27.0011127 C72.9969397,26.8348251 73,26.6677699 73,26.5 C73,19.0441559 66.9558441,13 59.5,13 C52.0441559,13 46,19.0441559 46,26.5 C46,26.6677699 46.0030603,26.8348251 46.0091283,27.0011127 L37,27 L37,2.30926389e-14 L74,2.30926389e-14 Z" id="Combined-Shape-Copy"></path>
        </g>
        <path d="M37,27 L35.9908717,27.0011127 C35.9969397,26.8348251 36,26.6677699 36,26.5 C36,19.0441559 29.9558441,13 22.5,13 C15.0441559,13 9,19.0441559 9,26.5 C9,26.6677699 9.00306034,26.8348251 9.00912825,27.0011127 L0,27" id="Path" stroke="#000000"></path>
        <path d="M74,27 L72.9908717,27.0011127 C72.9969397,26.8348251 73,26.6677699 73,26.5 C73,19.0441559 66.9558441,13 59.5,13 C52.0441559,13 46,19.0441559 46,26.5 C46,26.6677699 46.0030603,26.8348251 46.0091283,27.0011127 L37,27" id="Path" stroke="#000000"></path>
    </g>
</svg>