<svg width="1150px" height="28px" viewBox="0 0 1180 28" version="1.1"
    xmlns="http://www.w3.org/2000/svg"
    xmlns:xlink="http://www.w3.org/1999/xlink">
    <g id="Symbols" stroke="none" stroke-width="1" fill="none" fill-rule="evenodd">
        <g id="Footer/Desktop/03-Copy" transform="translate(0.000000, -326.000000)" fill="#1D1C1C">
            <g id="Pattern/Edge/Serrated/Orange-Copy" transform="translate(0.000000, 326.000000)">
                <path d="M0,0 C0,7.63961788 6.19106244,13.8327518 13.828125,13.8327518 C21.4651876,13.8327518 27.65625,7.63961788 27.65625,0 L36.875,0 C36.875,7.63961788 43.0660624,13.8327518 50.703125,13.8327518 C58.3401876,13.8327518 64.53125,7.63961788 64.53125,0 L73.75,0 C73.75,7.63961788 79.9410624,13.8327518 87.578125,13.8327518 C95.2151876,13.8327518 101.40625,7.63961788 101.40625,0 L110.625,0 C110.625,7.63961788 116.816062,13.8327518 124.453125,13.8327518 C132.090188,13.8327518 138.28125,7.63961788 138.28125,0 L147.5,0 C147.5,7.63961788 153.691062,13.8327518 161.328125,13.8327518 C168.965188,13.8327518 175.15625,7.63961788 175.15625,0 L184.375,0 C184.375,7.63961788 190.566062,13.8327518 198.203125,13.8327518 C205.840188,13.8327518 212.03125,7.63961788 212.03125,0 L221.25,0 C221.25,7.63961788 227.441062,13.8327518 235.078125,13.8327518 C242.715188,13.8327518 248.90625,7.63961788 248.90625,0 L258.125,0 C258.125,7.63961788 264.316062,13.8327518 271.953125,13.8327518 C279.590188,13.8327518 285.78125,7.63961788 285.78125,0 L295,0 C295,7.63961788 301.191062,13.8327518 308.828125,13.8327518 C316.465188,13.8327518 322.65625,7.63961788 322.65625,0 L331.875,0 C331.875,7.63961788 338.066062,13.8327518 345.703125,13.8327518 C353.340188,13.8327518 359.53125,7.63961788 359.53125,0 L368.75,0 C368.75,7.63961788 374.941062,13.8327518 382.578125,13.8327518 C390.215188,13.8327518 396.40625,7.63961788 396.40625,0 L405.625,0 C405.625,7.63961788 411.816062,13.8327518 419.453125,13.8327518 C427.090188,13.8327518 433.28125,7.63961788 433.28125,0 L442.5,0 C442.5,7.63961788 448.691062,13.8327518 456.328125,13.8327518 C463.965188,13.8327518 470.15625,7.63961788 470.15625,0 L479.375,0 C479.375,7.63961788 485.566062,13.8327518 493.203125,13.8327518 C500.840188,13.8327518 507.03125,7.63961788 507.03125,0 L516.25,0 C516.25,7.63961788 522.441062,13.8327518 530.078125,13.8327518 C537.715188,13.8327518 543.90625,7.63961788 543.90625,0 L553.125,0 C553.125,7.63961788 559.316062,13.8327518 566.953125,13.8327518 C574.590188,13.8327518 580.78125,7.63961788 580.78125,0 L590,0 C590,7.63961788 596.191062,13.8327518 603.828125,13.8327518 C611.465188,13.8327518 617.65625,7.63961788 617.65625,0 L626.875,0 C626.875,7.63961788 633.066062,13.8327518 640.703125,13.8327518 C648.340188,13.8327518 654.53125,7.63961788 654.53125,0 L663.75,0 C663.75,7.63961788 669.941062,13.8327518 677.578125,13.8327518 C685.215188,13.8327518 691.40625,7.63961788 691.40625,0 L700.625,0 C700.625,7.63961788 706.816062,13.8327518 714.453125,13.8327518 C722.090188,13.8327518 728.28125,7.63961788 728.28125,0 L737.5,0 C737.5,7.63961788 743.691062,13.8327518 751.328125,13.8327518 C758.965188,13.8327518 765.15625,7.63961788 765.15625,0 L774.375,0 C774.375,7.63961788 780.566062,13.8327518 788.203125,13.8327518 C795.840188,13.8327518 802.03125,7.63961788 802.03125,0 L811.25,0 C811.25,7.63961788 817.441062,13.8327518 825.078125,13.8327518 C832.715188,13.8327518 838.90625,7.63961788 838.90625,0 L848.125,0 C848.125,7.63961788 854.316062,13.8327518 861.953125,13.8327518 C869.590188,13.8327518 875.78125,7.63961788 875.78125,0 L885,0 C885,7.63961788 891.191062,13.8327518 898.828125,13.8327518 C906.465188,13.8327518 912.65625,7.63961788 912.65625,0 L921.875,0 C921.875,7.63961788 928.066062,13.8327518 935.703125,13.8327518 C943.340188,13.8327518 949.53125,7.63961788 949.53125,0 L958.75,0 C958.75,7.63961788 964.941062,13.8327518 972.578125,13.8327518 C980.215188,13.8327518 986.40625,7.63961788 986.40625,0 L995.625,0 C995.625,7.63961788 1001.81606,13.8327518 1009.45312,13.8327518 C1017.09019,13.8327518 1023.28125,7.63961788 1023.28125,0 L1032.5,0 C1032.5,7.63961788 1038.69106,13.8327518 1046.32812,13.8327518 C1053.96519,13.8327518 1060.15625,7.63961788 1060.15625,0 L1069.375,0 C1069.375,7.63961788 1075.56606,13.8327518 1083.20312,13.8327518 C1090.84019,13.8327518 1097.03125,7.63961788 1097.03125,0 L1106.25,0 C1106.25,7.63961788 1112.44106,13.8327518 1120.07812,13.8327518 C1127.71519,13.8327518 1133.90625,7.63961788 1133.90625,0 L1143.125,0 C1143.125,7.63961788 1149.31606,13.8327518 1156.95312,13.8327518 C1164.59019,13.8327518 1170.78125,7.63961788 1170.78125,0 L1180,0 L1180,27.6637025 L0,27.6637025 L0,0 Z" id="Path-Copy"></path>
            </g>
        </g>
    </g>
</svg>